<?xml version="1.0" standalone="no"?>
<!DOCTYPE svg PUBLIC "-//W3C//DTD SVG 20010904//EN"
 "http://www.w3.org/TR/2001/REC-SVG-20010904/DTD/svg10.dtd">
<svg version="1.0" xmlns="http://www.w3.org/2000/svg"
 width="240.000000pt" height="240.000000pt" viewBox="0 0 240.000000 240.000000"
 preserveAspectRatio="xMidYMid meet">
<metadata>
Created by potrace 1.11, written by Peter Selinger 2001-2013
</metadata>
<g transform="translate(0.000000,240.000000) scale(0.100000,-0.100000)"
fill="#000000" stroke="none">
<path d="M1315 2228 c-58 -34 -65 -61 -65 -248 0 -189 8 -217 67 -248 17 -9
24 -9 29 0 6 9 9 345 5 481 -1 30 -6 32 -36 15z"/>
<path d="M1740 1989 c-100 -6 -149 -23 -201 -71 -31 -28 -69 -81 -74 -105 -3
-10 -8 -34 -12 -53 -9 -37 -8 -300 0 -336 19 -78 98 -165 177 -195 38 -14 77
-18 205 -18 188 0 239 14 307 84 73 74 85 118 83 314 0 166 -1 169 -30 227
-35 67 -100 123 -167 142 -53 15 -162 19 -288 11z"/>
<path d="M528 1883 c-37 -23 -47 -56 -39 -124 1 -14 231 -244 258 -258 87 -44
188 61 135 141 -25 36 -223 233 -249 247 -31 16 -73 13 -105 -6z"/>
<path d="M1295 1549 c-78 -12 -96 -17 -150 -41 -180 -80 -301 -259 -309 -457
-2 -42 0 -85 4 -97 5 -11 10 -33 11 -50 5 -39 72 -171 107 -210 63 -68 108
-80 167 -44 59 37 66 107 18 169 -67 84 -82 121 -87 211 -5 88 25 155 100 226
41 39 67 55 112 68 32 9 65 16 73 16 11 0 14 20 12 106 0 58 -3 107 -5 108 -1
1 -25 -1 -53 -5z"/>
<path d="M254 1132 c-41 -7 -71 -24 -87 -51 -21 -35 -21 -63 -3 -99 26 -51 52
-57 252 -57 l184 0 29 30 c50 51 43 122 -16 160 -22 15 -52 18 -183 19 -86 1
-165 0 -176 -2z"/>
<path d="M1595 1092 c-59 -28 -110 -81 -130 -136 -28 -73 -26 -312 2 -376 25
-58 72 -104 131 -130 43 -19 62 -21 207 -18 138 3 164 6 190 22 50 33 86 69
108 111 20 36 22 55 22 205 0 184 -8 213 -77 275 -64 58 -71 60 -248 63 -144
2 -170 0 -205 -16z"/>
<path d="M744 552 c-8 -7 -14 -11 -14 -9 0 7 -195 -188 -219 -219 -40 -51 -21
-136 34 -154 70 -23 86 -14 214 115 66 66 125 133 131 149 15 41 4 81 -32 111
-33 28 -90 32 -114 7z"/>
</g>
</svg>
